Patient4_TMGait_0pt4_02_left_07_GRF.mot
version=1
nRows=58
nColumns=19
inDegrees=no
endheader
time	F1x	F1y	F1z	M1x	M1y	M1z	F2x	F2y	F2z	M2x	M2y	M2z	EC1x	EC1y	EC1z	EC2x	EC2y	EC2z
9.39	3.5063	5.1915	-4.1997	-0.57436	3.7397	1.8607	-18.2196	725.7818	-64.9713	263.0637	78.839	804.1683	-0.0592	0.0182	-0.0073	-0.0462	0.0165	0.9585
9.4036	2.3375	4.0489	-2.7958	-0.60653	2.4418	1.9535	-19.7217	719.7798	-62.1071	261.17	76.1753	799.0814	-0.0592	0.0182	-0.0073	-0.0462	0.0165	0.9585
9.4171	1.3412	3.1119	-1.5959	-0.6479	1.3441	2.072	-20.5804	716.6081	-59.5218	260.1982	73.5138	796.0972	-0.0592	0.0182	-0.0073	-0.0462	0.0165	0.9585
9.4307	0.56817	2.4369	-0.67536	-0.69373	0.50866	2.2155	-20.7233	717.2368	-57.4142	260.4968	71.0532	796.1527	-0.0592	0.0182	-0.0073	-0.0462	0.0165	0.9585
9.4443	0.019365	2.014	-0.034711	-0.73862	-0.070588	2.3688	-20.1846	721.9189	-55.8788	262.1772	68.9176	799.5857	-0.0592	0.0182	-0.0073	-0.0462	0.0165	0.9585
9.4579	-0.3436	1.7896	0.36131	-0.77336	-0.43154	2.5058	-19.0565	730.2465	-54.9274	265.1139	67.1603	806.1084	-0.0592	0.0182	-0.0073	-0.0462	0.0165	0.9585
9.4714	-0.56537	1.6893	0.57417	-0.78556	-0.63398	2.5966	-17.4736	741.2867	-54.516	268.9799	65.7857	814.9174	-0.0592	0.0182	-0.0073	-0.0462	0.0165	0.9585
9.485	-0.69235	1.6175	0.65334	-0.75839	-0.72191	2.5782	-15.5718	753.7059	-54.5616	273.2945	64.7579	824.7866	-0.0592	0.0182	-0.0073	-0.0462	0.0165	0.9585
9.4986	-0.77565	1.4753	0.66113	-0.67184	-0.75365	2.3842	-13.4882	765.9602	-54.9799	277.4937	64.0367	834.2546	-0.0592	0.0182	-0.0073	-0.0462	0.0165	0.9585
9.5121	-0.84019	1.1624	0.63448	-0.50553	-0.76243	1.9291	-11.337	776.5386	-55.6775	281.0199	63.5644	841.867	-0.0592	0.0182	-0.0073	-0.0462	0.0165	0.9585
9.5257	-0.91208	0.56648	0.61218	-0.23379	-0.78583	1.1148	-9.2033	784.1894	-56.5529	283.4114	63.2678	846.4153	-0.0592	0.0182	-0.0073	-0.0462	0.0165	0.9585
9.5393	-0.98856	-0.38977	0.60061	0.15863	-0.82753	-0.13923	-7.1635	788.0902	-57.4951	284.3681	63.0625	847.1206	-0.0592	0.0182	-0.0073	-0.0462	0.0165	0.9585
9.5529	-1.0519	-1.7362	0.60652	0.6753	-0.88334	-1.8593	-5.2625	787.8841	-58.4261	283.7642	62.8924	843.6598	-0.0592	0.0182	-0.0073	-0.0462	0.0165	0.9585
9.5664	-1.0539	-3.4256	0.60641	1.2965	-0.90847	-3.9708	-3.5124	783.6879	-59.3036	281.6528	62.7251	836.1812	-0.0592	0.0182	-0.0073	-0.0462	0.0165	0.9585
9.58	-0.92127	-5.2775	0.57208	1.9594	-0.84022	-6.2551	-1.8721	776.0654	-60.1289	278.2576	62.5497	825.2721	-0.0592	0.0182	-0.0073	-0.0462	0.0165	0.9585
9.5936	-0.55304	-6.8976	0.46262	2.5284	-0.59423	-8.2422	-0.25217	765.9394	-60.9332	273.9412	62.3674	811.867	-0.0592	0.0182	-0.0073	-0.0462	0.0165	0.9585
9.6071	0.17455	-7.6487	0.21605	2.775	-0.05048	-9.1596	1.476	754.4029	-61.7679	269.1329	62.1874	797.0583	-0.0592	0.0182	-0.0073	-0.0462	0.0165	0.9585
9.6207	1.3858	-6.5919	-0.22751	2.3598	0.91359	-7.8564	3.4767	742.4946	-62.6742	264.2443	62.0027	781.8644	-0.0592	0.0182	-0.0073	-0.0462	0.0165	0.9585
9.6343	3.1923	-2.4344	-0.94601	0.81491	2.4308	-2.7582	5.8876	731.0197	-63.6657	259.6002	61.7846	767.0648	-0.0592	0.0182	-0.0073	-0.0462	0.0165	0.9585
9.6479	5.6492	6.3902	-1.9781	-2.4302	4.5703	8.0481	8.7673	720.4316	-64.6995	255.3903	61.4682	753.0988	-0.0592	0.0182	-0.0073	-0.0462	0.0165	0.9585
9.6614	8.6881	21.5742	-3.3333	-7.9944	7.3062	26.6288	12.0777	710.7878	-65.6744	251.6485	60.969	740.0398	-0.0592	0.0182	-0.0073	-0.0462	0.0165	0.9585
9.675	12.0108	44.6006	-4.9157	-16.4179	10.4078	54.7854	15.6603	701.7182	-66.4278	248.244	60.1892	727.5707	-0.0592	0.0182	-0.0073	-0.0462	0.0165	0.9585
9.6886	14.999	76.1686	-6.5053	-27.9533	13.3723	93.362	19.2257	692.4451	-66.7464	244.8881	59.0259	715.0058	-0.0592	0.0182	-0.0073	-0.0462	0.0165	0.9585
9.7021	16.5751	115.3203	-7.6832	-42.2473	15.2917	141.1837	22.4132	681.8729	-66.4071	241.1653	57.3947	701.3818	-0.0592	0.0182	-0.0073	-0.0462	0.0165	0.9585
9.7157	15.3963	158.5838	-7.783	-58.0174	14.8754	194.0097	24.8696	668.7569	-65.2304	236.5995	55.2562	685.5912	-0.0592	0.0182	-0.0073	-0.0462	0.0165	0.9585
9.7293	11.4198	200.5619	-6.0779	-73.2407	11.2611	245.305	26.323	652.0916	-63.1574	230.8001	52.6571	666.7341	-0.0592	0.0182	-0.0073	-0.0462	0.0165	0.9585
9.7429	6.1324	236.2686	-2.4266	-86.0971	4.9003	288.8673	26.719	631.6166	-60.2983	223.6459	49.7319	644.5786	-0.0592	0.0182	-0.0073	-0.0462	0.0165	0.9585
9.7564	1.0234	264.2742	2.3611	-96.0992	-2.7205	322.7287	26.2532	607.8999	-56.9605	215.3149	46.7057	619.6339	-0.0592	0.0182	-0.0073	-0.0462	0.0165	0.9585
9.77	-3.2873	286.0391	7.6154	-103.8175	-10.5348	348.6175	25.2836	581.7842	-53.4847	206.1009	43.7614	592.6214	-0.0592	0.0182	-0.0073	-0.0462	0.0165	0.9585
9.7836	-6.6597	304.1417	12.5308	-110.2459	-17.5627	369.6894	24.185	553.9882	-50.0325	196.2691	40.9015	564.1304	-0.0592	0.0182	-0.0073	-0.0462	0.0165	0.9585
9.7971	-9.3108	321.0633	16.7466	-116.3216	-23.4222	389.0377	23.2651	524.9481	-46.5752	185.9964	37.975	534.4901	-0.0592	0.0182	-0.0073	-0.0462	0.0165	0.9585
9.8107	-11.4463	338.6364	19.866	-122.7356	-27.7516	408.8735	22.6593	494.7822	-42.9636	175.3482	34.7754	503.7574	-0.0592	0.0182	-0.0073	-0.0462	0.0165	0.9585
9.8243	-13.2185	357.9978	21.9273	-129.892	-30.6401	430.587	22.3526	463.2773	-39.0818	164.2602	31.1843	471.6921	-0.0592	0.0182	-0.0073	-0.0462	0.0165	0.9585
9.8379	-14.6609	379.8539	23.0889	-138.0115	-32.3114	455.0139	22.2228	430.0263	-34.9218	152.5808	27.2296	437.8685	-0.0592	0.0182	-0.0073	-0.0462	0.0165	0.9585
9.8514	-15.7155	404.5417	23.8124	-147.1599	-33.2854	482.5412	22.0456	394.5796	-30.6085	140.1292	23.1023	401.8305	-0.0592	0.0182	-0.0073	-0.0462	0.0165	0.9585
9.865	-16.3988	432.009	24.6076	-157.2588	-34.1656	513.0915	21.5456	356.6288	-26.3176	126.7728	19.0686	363.27	-0.0592	0.0182	-0.0073	-0.0462	0.0165	0.9585
9.8786	-16.8239	462.0901	25.9984	-168.1944	-35.5956	546.435	20.4385	316.2541	-22.2221	112.5213	15.4024	322.2777	-0.0592	0.0182	-0.0073	-0.0462	0.0165	0.9585
9.8921	-17.1377	494.8944	28.283	-179.9652	-37.9718	582.6693	18.5155	274.0774	-18.4476	97.5862	12.311	279.4928	-0.0592	0.0182	-0.0073	-0.0462	0.0165	0.9585
9.9057	-17.3669	530.719	31.472	-192.657	-41.3286	622.1035	15.7203	231.2603	-15.0636	82.3836	9.895	236.0938	-0.0592	0.0182	-0.0073	-0.0462	0.0165	0.9585
9.9193	-17.5143	569.6003	35.4168	-206.2645	-45.5018	664.7561	12.1885	189.3649	-12.108	67.478	8.1518	193.6502	-0.0592	0.0182	-0.0073	-0.0462	0.0165	0.9585
9.9329	-17.5839	610.8431	39.8973	-220.5225	-50.2504	709.8235	8.2736	150.0664	-9.5831	53.4766	6.9669	153.8205	-0.0592	0.0182	-0.0073	-0.0462	0.0165	0.9585
9.9464	-17.6095	652.9968	44.7689	-234.891	-55.4149	755.6769	4.4109	114.8032	-7.478	40.9006	6.1783	118.0321	-0.0592	0.0182	-0.0073	-0.0462	0.0165	0.9585
9.96	-17.6222	694.1453	49.864	-248.669	-60.8147	800.1726	0.99902	84.4861	-5.7348	30.0846	5.5885	87.1865	-0.0592	0.0182	-0.0073	-0.0462	0.0165	0.9585
9.9736	-17.6052	732.2297	55.0139	-261.1214	-66.2477	841.0057	-1.6739	59.43	-4.2887	21.148	5.0345	61.6133	-0.0592	0.0182	-0.0073	-0.0462	0.0165	0.9585
9.9871	-17.5209	765.3485	59.9279	-271.5983	-71.3672	876.0533	-3.4685	39.4865	-3.0785	14.0413	4.4111	41.1926	-0.0592	0.0182	-0.0073	-0.0462	0.0165	0.9585
10.0007	-17.3073	792.0043	64.3303	-279.6135	-75.8348	903.6587	-4.3588	24.2139	-2.0811	8.6083	3.6921	25.5	-0.0592	0.0182	-0.0073	-0.0462	0.0165	0.9585
10.0143	-16.9373	811.2155	67.9547	-284.8736	-79.3439	922.7521	-4.4161	13.0821	-1.2801	4.6575	2.8898	14.0266	-0.0592	0.0182	-0.0073	-0.0462	0.0165	0.9585
10.0279	-16.4034	822.5498	70.6932	-287.2756	-81.7721	932.9054	-3.8473	5.548	-0.68097	1.9914	2.0813	6.2295	-0.0592	0.0182	-0.0073	-0.0462	0.0165	0.9585
10.0414	-15.7232	826.1212	72.488	-286.9085	-83.0719	934.2945	-3.0144	0.99544	-0.2713	0.38653	1.375	1.4933	-0.0592	0.0182	-0.0073	-0.0462	0.0165	0.9585
10.055	-14.8945	822.6081	73.4026	-284.0571	-83.3219	927.7221	-2.1586	-1.3229	-0.026755	-0.42324	0.8289	-0.94354	-0.0592	0.0182	-0.0073	-0.0462	0.0165	0.9585
10.0686	-13.8654	813.2077	73.4879	-279.1909	-82.5823	914.5424	-1.4112	-2.1073	0.094176	-0.68825	0.44564	-1.7958	-0.0592	0.0182	-0.0073	-0.0462	0.0165	0.9585
10.0821	-12.5767	799.4686	72.9189	-272.8935	-81.035	896.4954	-0.82578	-1.9503	0.12495	-0.62006	0.20961	-1.6747	-0.0592	0.0182	-0.0073	-0.0462	0.0165	0.9585
10.0957	-10.9752	783.1049	71.8628	-265.7988	-78.8595	875.4681	-0.40498	-1.309	0.10171	-0.38086	0.087121	-1.0546	-0.0592	0.0182	-0.0073	-0.0462	0.0165	0.9585
10.1093	-9.0446	765.8537	70.5335	-258.539	-76.2834	853.3678	-0.13943	-0.49025	0.050906	-0.079442	0.045411	-0.24176	-0.0592	0.0182	-0.0073	-0.0462	0.0165	0.9585
10.1229	-6.7919	749.3885	69.0541	-251.7144	-73.4584	832.013	0.012987	0.31763	-0.012141	0.21764	0.056206	0.56537	-0.0592	0.0182	-0.0073	-0.0462	0.0165	0.9585
10.1364	-4.2824	735.1677	67.5542	-245.8383	-70.55	812.9806	0.081565	1.0193	-0.070363	0.47643	0.094978	1.2717	-0.0592	0.0182	-0.0073	-0.0462	0.0165	0.9585
10.15	-1.5918	724.3132	66.0938	-241.3	-67.6576	797.474	0.087333	1.5685	-0.11684	0.68046	0.14776	1.8329	-0.0592	0.0182	-0.0073	-0.0462	0.0165	0.9585
10.1636	1.1774	717.5427	64.7316	-238.3397	-64.875	786.2757	0.052789	1.9648	-0.14771	0.82729	0.20285	2.2448	-0.0592	0.0182	-0.0073	-0.0462	0.0165	0.9585
